# xmcd CD database file
#
# Track frame offsets:
#	150
#	18150
#	35392
#
# Disc length: 717 seconds
#
# Revision: 0
# Processed by: cddbd v1.5.1PL2 Copyright (c) Steve Scherf et al.
# Submitted via: CDex 1.51
#
DISCID=1602cb03
DTITLE=MASK - C
DYEAR=2005
DGENRE=ヴィジュアル系
TTITLE0=アナタは本当の孤独の辛さ…恐さ…痛みをしっていますか？
TTITLE1=C
TTITLE2=1990年5月
EXTD=YEAR: 2005
EXTT0=
EXTT1=
EXTT2=
PLAYORDER=
